<svg width="118px" height="88px" viewBox="0 0 118 88" version="1.1" xmlns="http://www.w3.org/2000/svg" xmlns:xlink="http://www.w3.org/1999/xlink" xmlns:sketch="http://www.bohemiancoding.com/sketch/ns">
    <!-- Generator: Sketch 3.2.2 (9983) - http://www.bohemiancoding.com/sketch -->
    <title>social-24</title>
    <desc>Created with Sketch.</desc>
    <defs></defs>
    <g id="Page-1" stroke="none" stroke-width="1" fill="none" fill-rule="evenodd" sketch:type="MSPage">
        <g id="Artboard-1" sketch:type="MSArtboardGroup" transform="translate(-48.000000, -290.000000)">
            <g id="social-24" sketch:type="MSLayerGroup" transform="translate(13.415385, 243.500000)">
                <g id="social" transform="translate(34.984615, 46.646154)" sketch:type="MSShapeGroup">
                    <g id="Group">
                        <path d="M107.869231,64.8760538 L107.869231,8.74615385 C107.869231,3.93576923 103.933462,0 99.1230769,0 L17.4923077,0 C12.6819231,0 8.74615385,3.93576923 8.74615385,8.74615385 L8.74615385,64.8760538 L1.79004615,73.5609846 C0.632638462,75.0099308 0,76.8116385 0,78.6658231 L0,81.6307692 C0,84.8376923 2.62384615,87.4615385 5.83076923,87.4615385 L110.784615,87.4615385 C113.991538,87.4615385 116.615385,84.8376923 116.615385,81.6307692 L116.615385,78.6658231 C116.615385,76.8087231 115.982746,75.0099308 114.825338,73.5609846 L107.869231,64.8760538 L107.869231,64.8760538 Z" id="Shape" fill="#53585F"></path>
                        <path d="M102.038462,8.74615385 C102.038462,7.14269231 100.726538,5.83076923 99.1230769,5.83076923 L17.4923077,5.83076923 C15.8888462,5.83076923 14.5769231,7.14269231 14.5769231,8.74615385 L14.5769231,64.1384615 L102.038462,64.1384615 L102.038462,8.74615385 L102.038462,8.74615385 Z" id="Shape" fill="#FFFFFF"></path>
                        <rect id="Rectangle-path" fill="#589DA8" x="14.5769231" y="5.83076923" width="87.4615385" height="58.3076923"></rect>
                    </g>
                    <path d="M75.6367385,79.4267385 C75.8728846,79.8990308 75.8466462,80.4587846 75.5726,80.9077538 C75.2927231,81.3567231 74.8029385,81.6307692 74.2781692,81.6307692 L44.2176385,81.6307692 C43.6899538,81.6307692 43.2001692,81.3567231 42.9232077,80.9077538 C42.6462462,80.4617 42.6200077,79.8990308 42.8590692,79.4267385 L44.2526231,76.6425462 C44.5091769,76.1236077 45.0339462,75.8 45.6111923,75.8 L72.8846154,75.8 C73.4589462,75.8 73.9866308,76.1236077 74.2461,76.6425462 L75.6367385,79.4267385 L75.6367385,79.4267385 Z" id="Shape" fill="#70BF41"></path>
                    <path d="M27.6535438,30.6127102 L25.6078117,28.5512417 L38.4570548,15.6031583 L40.5027868,17.6646267 L27.6535438,30.6127102 L27.6535438,30.6127102 Z" id="Rectangle-path" fill="#FFFFFF"></path>
                    <path d="M25.3473973,23.3243824 L23.3010675,21.2593934 L30.5398912,13.9751953 L32.586221,16.0401844 L25.3473973,23.3243824 L25.3473973,23.3243824 Z" id="Rectangle-path" fill="#FFFFFF"></path>
                </g>
            </g>
        </g>
    </g>
</svg>